# This file uses centimeters as units for non-parametric coordinates.

g default
v 0.000000 0.542218 -0.762031
v -0.542218 0.000000 -0.762031
v -0.000000 -0.542218 -0.762031
v 0.542218 -0.000000 -0.762031
v 0.000000 0.542218 0.762031
v -0.542218 0.000000 0.762031
v -0.000000 -0.542218 0.762031
v 0.542218 0.000000 0.762031
v 0.000000 -0.000000 -1.524062
v 0.000000 0.000000 1.524062
vt 0.000000 0.333333
vt 0.250000 0.333333
vt 0.500000 0.333333
vt 0.750000 0.333333
vt 1.000000 0.333333
vt 0.000000 0.666667
vt 0.250000 0.666667
vt 0.500000 0.666667
vt 0.750000 0.666667
vt 1.000000 0.666667
vt 0.125000 0.000000
vt 0.375000 0.000000
vt 0.625000 0.000000
vt 0.875000 0.000000
vt 0.125000 1.000000
vt 0.375000 1.000000
vt 0.625000 1.000000
vt 0.875000 1.000000
vn -0.694044 0.694044 -0.191327
vn -0.701997 0.701997 -0.120007
vn -0.701997 0.701997 0.120007
vn -0.701997 0.701997 0.120007
vn -0.701997 0.701997 -0.120007
vn -0.694044 0.694044 0.191327
vn -0.694044 -0.694044 -0.191327
vn -0.701997 -0.701997 -0.120007
vn -0.701997 -0.701997 0.120007
vn -0.701997 -0.701997 0.120007
vn -0.701997 -0.701997 -0.120007
vn -0.694044 -0.694044 0.191327
vn 0.694044 -0.694044 -0.191327
vn 0.701997 -0.701997 -0.120007
vn 0.701997 -0.701997 0.120007
vn 0.701997 -0.701997 0.120007
vn 0.701997 -0.701997 -0.120007
vn 0.694044 -0.694044 0.191327
vn 0.694044 0.694044 -0.191327
vn 0.701997 0.701997 -0.120007
vn 0.701997 0.701997 0.120007
vn 0.701997 0.701997 0.120007
vn 0.701997 0.701997 -0.120007
vn 0.694044 0.694044 0.191327
vn -0.701997 0.701997 -0.120007
vn -0.694044 0.694044 -0.191327
vn -0.631661 0.631661 -0.449454
vn -0.701997 -0.701997 -0.120007
vn -0.694044 -0.694044 -0.191327
vn -0.631661 -0.631661 -0.449454
vn 0.701997 -0.701997 -0.120007
vn 0.694044 -0.694044 -0.191327
vn 0.631661 -0.631661 -0.449454
vn 0.701997 0.701997 -0.120007
vn 0.694044 0.694044 -0.191327
vn 0.631661 0.631661 -0.449454
vn -0.701997 0.701997 0.120007
vn -0.694044 0.694044 0.191327
vn -0.631661 0.631661 0.449454
vn -0.701997 -0.701997 0.120007
vn -0.694044 -0.694044 0.191327
vn -0.631661 -0.631661 0.449454
vn 0.701997 -0.701997 0.120007
vn 0.694044 -0.694044 0.191327
vn 0.631661 -0.631661 0.449454
vn 0.701997 0.701997 0.120007
vn 0.694044 0.694044 0.191327
vn 0.631661 0.631661 0.449454
s off
g pSphere1
f 1/1/1 2/2/2 5/6/3
f 5/6/4 2/2/5 6/7/6
f 2/2/7 3/3/8 6/7/9
f 6/7/10 3/3/11 7/8/12
f 3/3/13 4/4/14 7/8/15
f 7/8/16 4/4/17 8/9/18
f 4/4/19 1/5/20 8/9/21
f 8/9/22 1/5/23 5/10/24
f 2/2/25 1/1/26 9/11/27
f 3/3/28 2/2/29 9/12/30
f 4/4/31 3/3/32 9/13/33
f 1/5/34 4/4/35 9/14/36
f 5/6/37 6/7/38 10/15/39
f 6/7/40 7/8/41 10/16/42
f 7/8/43 8/9/44 10/17/45
f 8/9/46 5/10/47 10/18/48
